<svg xmlns="http://www.w3.org/2000/svg" viewBox="0 0 228 24" width="228" height="24" shape-rendering="crispEdges">
  <!-- OPENAGENT Logo - Pixelated Block Style -->
  <!-- Left/right columns 5px wide, middle columns 6px wide -->
  
  <!-- O - #5a7de6 (x: 0, 5, 11, 17) -->
  <rect x="0" y="0" width="5" height="6" fill="#5a7de6"/>
  <rect x="0" y="6" width="5" height="6" fill="#5a7de6"/>
  <rect x="0" y="12" width="5" height="6" fill="#5a7de6"/>
  <rect x="0" y="18" width="5" height="6" fill="#5a7de6"/>
  <rect x="5" y="0" width="6" height="5" fill="#5a7de6"/>
  <rect x="11" y="0" width="6" height="5" fill="#5a7de6"/>
  <rect x="17" y="0" width="5" height="6" fill="#5a7de6"/>
  <rect x="17" y="6" width="5" height="6" fill="#5a7de6"/>
  <rect x="17" y="12" width="5" height="6" fill="#5a7de6"/>
  <rect x="17" y="18" width="5" height="6" fill="#5a7de6"/>
  <rect x="5" y="19" width="6" height="5" fill="#5a7de6"/>
  <rect x="11" y="19" width="6" height="5" fill="#5a7de6"/>
  
  <!-- P - #647ee8 (x: 25, 30, 36, 42) - middle line at y=12 -->
  <rect x="25" y="0" width="5" height="6" fill="#647ee8"/>
  <rect x="25" y="6" width="5" height="6" fill="#647ee8"/>
  <rect x="25" y="12" width="5" height="6" fill="#647ee8"/>
  <rect x="25" y="18" width="5" height="6" fill="#647ee8"/>
  <rect x="30" y="0" width="6" height="5" fill="#647ee8"/>
  <rect x="36" y="0" width="6" height="5" fill="#647ee8"/>
  <rect x="42" y="0" width="5" height="6" fill="#647ee8"/>
  <rect x="42" y="6" width="5" height="6" fill="#647ee8"/>
  <rect x="42" y="12" width="5" height="5" fill="#647ee8"/>
  <rect x="30" y="12" width="6" height="5" fill="#647ee8"/>
  <rect x="36" y="12" width="6" height="5" fill="#647ee8"/>
  
  <!-- E - #6e80ea (x: 50, 55, 61, 67) -->
  <rect x="50" y="0" width="5" height="6" fill="#6e80ea"/>
  <rect x="50" y="6" width="5" height="6" fill="#6e80ea"/>
  <rect x="50" y="12" width="5" height="6" fill="#6e80ea"/>
  <rect x="50" y="18" width="5" height="6" fill="#6e80ea"/>
  <rect x="55" y="0" width="6" height="5" fill="#6e80ea"/>
  <rect x="61" y="0" width="6" height="5" fill="#6e80ea"/>
  <rect x="67" y="0" width="5" height="5" fill="#6e80ea"/>
  <rect x="55" y="9.5" width="6" height="5" fill="#6e80ea"/>
  <rect x="61" y="9.5" width="6" height="5" fill="#6e80ea"/>
  <rect x="67" y="9.5" width="5" height="5" fill="#6e80ea"/>
  <rect x="55" y="19" width="6" height="5" fill="#6e80ea"/>
  <rect x="61" y="19" width="6" height="5" fill="#6e80ea"/>
  <rect x="67" y="19" width="5" height="5" fill="#6e80ea"/>
  
  <!-- N - #7982ed (x: 75, 80, 86, 92) -->
  <rect x="75" y="0" width="5" height="6" fill="#7982ed"/>
  <rect x="75" y="6" width="5" height="6" fill="#7982ed"/>
  <rect x="75" y="12" width="5" height="6" fill="#7982ed"/>
  <rect x="75" y="18" width="5" height="6" fill="#7982ed"/>
  <rect x="80" y="0" width="6" height="5" fill="#7982ed"/>
  <rect x="86" y="0" width="6" height="5" fill="#7982ed"/>
  <rect x="92" y="0" width="5" height="6" fill="#7982ed"/>
  <rect x="92" y="6" width="5" height="6" fill="#7982ed"/>
  <rect x="92" y="12" width="5" height="6" fill="#7982ed"/>
  <rect x="92" y="18" width="5" height="6" fill="#7982ed"/>
  
  <!-- A - #8a68f0 (x: 106, 111, 117, 123) - middle line at y=12 -->
  <rect x="106" y="0" width="5" height="6" fill="#8a68f0"/>
  <rect x="106" y="6" width="5" height="6" fill="#8a68f0"/>
  <rect x="106" y="12" width="5" height="6" fill="#8a68f0"/>
  <rect x="106" y="18" width="5" height="6" fill="#8a68f0"/>
  <rect x="111" y="0" width="6" height="5" fill="#8a68f0"/>
  <rect x="117" y="0" width="6" height="5" fill="#8a68f0"/>
  <rect x="123" y="0" width="5" height="6" fill="#8a68f0"/>
  <rect x="123" y="6" width="5" height="6" fill="#8a68f0"/>
  <rect x="123" y="12" width="5" height="6" fill="#8a68f0"/>
  <rect x="123" y="18" width="5" height="6" fill="#8a68f0"/>
  <rect x="111" y="12" width="6" height="5" fill="#8a68f0"/>
  <rect x="117" y="12" width="6" height="5" fill="#8a68f0"/>
  
  <!-- G - #8e6bf2 (x: 131, 136, 142, 148) -->
  <rect x="131" y="0" width="5" height="6" fill="#8e6bf2"/>
  <rect x="131" y="6" width="5" height="6" fill="#8e6bf2"/>
  <rect x="131" y="12" width="5" height="6" fill="#8e6bf2"/>
  <rect x="131" y="18" width="5" height="6" fill="#8e6bf2"/>
  <rect x="136" y="0" width="6" height="5" fill="#8e6bf2"/>
  <rect x="142" y="0" width="6" height="5" fill="#8e6bf2"/>
  <rect x="148" y="0" width="5" height="5" fill="#8e6bf2"/>
  <rect x="136" y="19" width="6" height="5" fill="#8e6bf2"/>
  <rect x="142" y="19" width="6" height="5" fill="#8e6bf2"/>
  <rect x="148" y="9.5" width="5" height="14.5" fill="#8e6bf2"/>
  <rect x="142" y="9.5" width="6" height="5" fill="#8e6bf2"/>
  
  <!-- E - #926ef4 (x: 156, 161, 167, 173) -->
  <rect x="156" y="0" width="5" height="6" fill="#926ef4"/>
  <rect x="156" y="6" width="5" height="6" fill="#926ef4"/>
  <rect x="156" y="12" width="5" height="6" fill="#926ef4"/>
  <rect x="156" y="18" width="5" height="6" fill="#926ef4"/>
  <rect x="161" y="0" width="6" height="5" fill="#926ef4"/>
  <rect x="167" y="0" width="6" height="5" fill="#926ef4"/>
  <rect x="173" y="0" width="5" height="5" fill="#926ef4"/>
  <rect x="161" y="9.5" width="6" height="5" fill="#926ef4"/>
  <rect x="167" y="9.5" width="6" height="5" fill="#926ef4"/>
  <rect x="173" y="9.5" width="5" height="5" fill="#926ef4"/>
  <rect x="161" y="19" width="6" height="5" fill="#926ef4"/>
  <rect x="167" y="19" width="6" height="5" fill="#926ef4"/>
  <rect x="173" y="19" width="5" height="5" fill="#926ef4"/>
  
  <!-- N - #9671f6 (x: 181, 186, 192, 198) -->
  <rect x="181" y="0" width="5" height="6" fill="#9671f6"/>
  <rect x="181" y="6" width="5" height="6" fill="#9671f6"/>
  <rect x="181" y="12" width="5" height="6" fill="#9671f6"/>
  <rect x="181" y="18" width="5" height="6" fill="#9671f6"/>
  <rect x="186" y="0" width="6" height="5" fill="#9671f6"/>
  <rect x="192" y="0" width="6" height="5" fill="#9671f6"/>
  <rect x="198" y="0" width="5" height="6" fill="#9671f6"/>
  <rect x="198" y="6" width="5" height="6" fill="#9671f6"/>
  <rect x="198" y="12" width="5" height="6" fill="#9671f6"/>
  <rect x="198" y="18" width="5" height="6" fill="#9671f6"/>
  
  <!-- T - #9a74f8 (x: 206, 211, 217, 223; stem at 214.5, width 5) -->
  <rect x="206" y="0" width="5" height="5" fill="#9a74f8"/>
  <rect x="211" y="0" width="6" height="5" fill="#9a74f8"/>
  <rect x="217" y="0" width="6" height="5" fill="#9a74f8"/>
  <rect x="223" y="0" width="5" height="5" fill="#9a74f8"/>
  <rect x="214.5" y="5" width="5" height="6" fill="#9a74f8"/>
  <rect x="214.5" y="11" width="5" height="6" fill="#9a74f8"/>
  <rect x="214.5" y="17" width="5" height="7" fill="#9a74f8"/>
  
</svg>